# xmcd CD database file
#
# Track frame offsets:
#	150
#	15332
#	30358
#	43104
#	63294
#	76273
#	88930
#	101594
#	115317
#	131969
#	145132
#	154236
#	170597
#
# Disc length: 2617 seconds
#
# Revision: 0
# Processed by: cddbd v1.5.2PL0 Copyright (c) Steve Scherf et al.
# Submitted via: CDex 1.51
#
DISCID=a70a370d
DTITLE=Joe Buck Yourself - Joe Buck Yourself
DYEAR=2007
DGENRE=Country
TTITLE0=Dig A Hole
TTITLE1=Are You My Enemy?
TTITLE2=I Will Survive
TTITLE3=Devil Is On His Way
TTITLE4=Hillbilly Speedball
TTITLE5=I Want Revenge
TTITLE6=Bitter Is The Day
TTITLE7=Planet Seeth
TTITLE8=Evil Motherfucker from TN
TTITLE9=Took Up With The Devil
TTITLE10=Born To Scare
TTITLE11=Hillbilly Pride
TTITLE12=Intreatment All
EXTD=YEAR: 2007
EXTT0=
EXTT1=
EXTT2=
EXTT3=
EXTT4=
EXTT5=
EXTT6=
EXTT7=
EXTT8=
EXTT9=
EXTT10=
EXTT11=
EXTT12=
PLAYORDER=
